<mxfile host="app.diagrams.net" modified="2024-03-26T06:05:39.298Z" agent="Mozilla/5.0 (X11; Linux x86_64) AppleWebKit/537.36 (KHTML, like Gecko) Chrome/123.0.0.0 Safari/537.36" version="24.0.4" etag="o18nXtU1Nc4aRZpeEx-O" type="github">
  <diagram name="페이지-1" id="p6EEGlN3zrC5pQ_vs0si">
    <mxGraphModel>
      <root>
        <mxCell id="0" />
        <mxCell id="1" parent="0" />
      </root>
    </mxGraphModel>
  </diagram>
</mxfile>
